<svg xmlns="http://www.w3.org/2000/svg" version="1.1" xmlns:xlink="http://www.w3.org/1999/xlink" xmlns:svgjs="http://svgjs.dev/svgjs" width="1500" height="299" viewBox="0 0 1500 299"><g transform="matrix(1,0,0,1,-0.9090909090909918,-0.329866511061482)"><svg viewBox="0 0 396 79" data-background-color="#ffffff" preserveAspectRatio="xMidYMid meet" height="299" width="1500" xmlns="http://www.w3.org/2000/svg" xmlns:xlink="http://www.w3.org/1999/xlink"><g id="tight-bounds" transform="matrix(1,0,0,1,0.2400000000000091,0.08715536579884997)"><svg viewBox="0 0 395.52 78.82568926840229" height="78.82568926840229" width="395.52"><g><svg viewBox="0 0 516.1155656735838 102.85994439313205" height="78.82568926840229" width="395.52"><g transform="matrix(1,0,0,1,120.59556567358376,14.215809970396698)"><svg viewBox="0 0 395.52 74.42832445233866" height="74.42832445233866" width="395.52"><g id="textblocktransform"><svg viewBox="0 0 395.52 74.42832445233866" height="74.42832445233866" width="395.52" id="textblock"><g><svg viewBox="0 0 395.52 74.42832445233866" height="74.42832445233866" width="395.52"><g transform="matrix(1,0,0,1,0,0)"><svg width="395.52" viewBox="1.34 -36.55 247.4 46.559999999999995" height="74.42832445233866" data-palette-color="#2b2d42"><path d="M27.44-1.1L32.86 7.01 24.9 7.01 20.7 0.71Q20.36 0.76 20.06 0.76 19.75 0.76 19.46 0.76L19.46 0.76Q16.97 0.76 14.66 0.11 12.35-0.54 10.34-1.72 8.33-2.91 6.67-4.57 5-6.23 3.82-8.24 2.64-10.25 1.99-12.56 1.34-14.87 1.34-17.36L1.34-17.36Q1.34-19.85 1.99-22.17 2.64-24.49 3.82-26.49 5-28.49 6.67-30.15 8.33-31.81 10.34-32.98 12.35-34.16 14.66-34.8 16.97-35.45 19.46-35.45L19.46-35.45Q21.95-35.45 24.27-34.8 26.59-34.16 28.59-32.98 30.59-31.81 32.25-30.15 33.91-28.49 35.08-26.49 36.25-24.49 36.9-22.17 37.55-19.85 37.55-17.36L37.55-17.36Q37.55-14.77 36.83-12.33 36.11-9.89 34.79-7.78 33.47-5.66 31.6-3.96 29.74-2.25 27.44-1.1L27.44-1.1ZM30.59-17.36L30.59-17.36Q30.59-19.65 29.71-21.69 28.83-23.73 27.33-25.23 25.83-26.73 23.79-27.61 21.75-28.49 19.46-28.49L19.46-28.49Q17.14-28.49 15.11-27.61 13.09-26.73 11.57-25.23 10.06-23.73 9.18-21.69 8.3-19.65 8.3-17.36L8.3-17.36Q8.3-15.06 9.18-13.05 10.06-11.04 11.57-9.52 13.09-8.01 15.11-7.13 17.14-6.25 19.46-6.25L19.46-6.25Q21.75-6.25 23.79-7.13 25.83-8.01 27.33-9.52 28.83-11.04 29.71-13.05 30.59-15.06 30.59-17.36ZM48.73-13.99L62.74-13.99 62.74-21Q62.74-22.44 62.19-23.72 61.64-25 60.69-25.95 59.74-26.9 58.46-27.45 57.18-28 55.73-28L55.73-28Q54.29-28 53.01-27.45 51.73-26.9 50.78-25.95 49.83-25 49.28-23.72 48.73-22.44 48.73-21L48.73-21 48.73-13.99ZM69.75-21L69.75 0 62.74 0 62.74-7.01 48.73-7.01 48.73 0 41.75 0 41.75-21Q41.75-23.9 42.84-26.45 43.94-29 45.83-30.91 47.73-32.81 50.28-33.91 52.83-35.01 55.73-35.01L55.73-35.01Q58.64-35.01 61.19-33.91 63.74-32.81 65.65-30.91 67.55-29 68.65-26.45 69.75-23.9 69.75-21L69.75-21ZM97.72-20.95L97.72-20.95 92.84-16.04Q92.48-17.07 91.84-17.88 91.21-18.7 90.41-19.26 89.62-19.82 88.69-20.12 87.76-20.41 86.79-20.41L86.79-20.41Q85.42-20.41 84.21-19.85 83-19.29 82.11-18.27 81.22-17.26 80.71-15.87 80.2-14.48 80.2-12.79L80.2-12.79Q80.2-11.43 80.71-10.23 81.22-9.03 82.11-8.13 83-7.23 84.21-6.71 85.42-6.2 86.79-6.2L86.79-6.2Q87.76-6.2 88.67-6.47 89.57-6.74 90.36-7.24 91.16-7.74 91.78-8.46 92.4-9.18 92.79-10.06L92.79-10.06 97.68-5.15Q96.75-3.83 95.54-2.78 94.33-1.73 92.93-1 91.52-0.27 89.97 0.11 88.42 0.49 86.79 0.49L86.79 0.49Q84.03 0.49 81.6-0.55 79.17-1.59 77.35-3.39 75.53-5.2 74.48-7.62 73.43-10.03 73.43-12.79L73.43-12.79Q73.43-15.8 74.48-18.41 75.53-21.02 77.35-22.96 79.17-24.9 81.6-26.03 84.03-27.15 86.79-27.15L86.79-27.15Q88.42-27.15 90-26.73 91.57-26.32 93-25.52 94.43-24.73 95.64-23.58 96.85-22.44 97.72-20.95ZM125.9-26.1L125.9 0 124.28 0 121.7-3.59Q120.74-2.73 119.68-1.99 118.62-1.25 117.45-0.7 116.28-0.15 115.04 0.17 113.81 0.49 112.54 0.49L112.54 0.49Q109.78 0.49 107.35-0.44 104.92-1.37 103.11-3.14 101.29-4.91 100.24-7.47 99.19-10.03 99.19-13.31L99.19-13.31Q99.19-16.36 100.24-18.91 101.29-21.46 103.11-23.29 104.92-25.12 107.35-26.14 109.78-27.15 112.54-27.15L112.54-27.15Q113.81-27.15 115.06-26.83 116.3-26.51 117.47-25.95 118.64-25.39 119.71-24.63 120.77-23.88 121.7-23L121.7-23 124.28-26.1 125.9-26.1ZM119.18-13.31L119.18-13.31Q119.18-14.67 118.66-15.95 118.13-17.24 117.23-18.23 116.33-19.21 115.12-19.81 113.91-20.41 112.54-20.41L112.54-20.41Q111.17-20.41 109.97-19.95 108.76-19.48 107.87-18.58 106.97-17.68 106.46-16.35 105.95-15.01 105.95-13.31L105.95-13.31Q105.95-11.6 106.46-10.27 106.97-8.94 107.87-8.03 108.76-7.13 109.97-6.67 111.17-6.2 112.54-6.2L112.54-6.2Q113.91-6.2 115.12-6.8 116.33-7.4 117.23-8.39 118.13-9.38 118.66-10.66 119.18-11.94 119.18-13.31ZM156.24-36.55L156.24 0 154.63 0 152.04-3.59Q151.09-2.73 150.03-1.99 148.96-1.25 147.79-0.7 146.62-0.15 145.39 0.17 144.16 0.49 142.89 0.49L142.89 0.49Q140.13 0.49 137.7-0.55 135.27-1.59 133.45-3.43 131.63-5.27 130.58-7.8 129.53-10.33 129.53-13.31L129.53-13.31Q129.53-16.26 130.58-18.8 131.63-21.34 133.45-23.19 135.27-25.05 137.7-26.1 140.13-27.15 142.89-27.15L142.89-27.15Q143.76-27.15 144.7-27 145.64-26.86 146.54-26.53 147.43-26.2 148.21-25.66 148.99-25.12 149.53-24.34L149.53-24.34 149.53-36.55 156.24-36.55ZM149.53-13.31L149.53-13.31Q149.53-14.67 149-15.95 148.48-17.24 147.57-18.23 146.67-19.21 145.46-19.81 144.25-20.41 142.89-20.41L142.89-20.41Q141.52-20.41 140.31-19.92 139.1-19.43 138.21-18.52 137.32-17.6 136.81-16.28 136.29-14.97 136.29-13.31L136.29-13.31Q136.29-11.87 136.81-10.57 137.32-9.28 138.21-8.3 139.1-7.32 140.31-6.76 141.52-6.2 142.89-6.2L142.89-6.2Q144.25-6.2 145.46-6.8 146.67-7.4 147.57-8.39 148.48-9.38 149-10.66 149.53-11.94 149.53-13.31ZM184.22-21.46L171.72-6.4Q172.11-6.27 172.5-6.24 172.89-6.2 173.28-6.2L173.28-6.2Q174.26-6.2 175.16-6.47 176.06-6.74 176.86-7.24 177.65-7.74 178.27-8.46 178.89-9.18 179.28-10.06L179.28-10.06 184.17-5.15Q183.24-3.83 182.03-2.78 180.82-1.73 179.42-1 178.01-0.27 176.46 0.11 174.91 0.49 173.28 0.49L173.28 0.49Q170.52 0.49 168.09-0.54 165.66-1.56 163.84-3.39 162.02-5.22 160.97-7.75 159.92-10.28 159.92-13.31L159.92-13.31Q159.92-16.41 160.97-18.97 162.02-21.53 163.84-23.34 165.66-25.15 168.09-26.15 170.52-27.15 173.28-27.15L173.28-27.15Q174.91-27.15 176.48-26.76 178.04-26.37 179.44-25.63 180.85-24.9 182.07-23.84 183.29-22.78 184.22-21.46L184.22-21.46ZM167.37-9.84L175.13-20.14Q174.67-20.31 174.22-20.36 173.77-20.41 173.28-20.41L173.28-20.41Q171.91-20.41 170.7-19.91 169.49-19.41 168.6-18.48 167.71-17.55 167.2-16.25 166.69-14.94 166.69-13.31L166.69-13.31Q166.69-12.94 166.72-12.48 166.76-12.01 166.85-11.54 166.93-11.06 167.05-10.62 167.18-10.18 167.37-9.84L167.37-9.84ZM220.81-16.6L220.81 0 214.17 0 214.17-16.6Q214.17-17.29 213.91-17.9 213.66-18.51 213.19-18.97 212.73-19.43 212.12-19.69 211.51-19.95 210.82-19.95L210.82-19.95Q210.14-19.95 209.54-19.69 208.94-19.43 208.49-18.97 208.04-18.51 207.79-17.9 207.53-17.29 207.53-16.6L207.53-16.6 207.53 0 200.86 0 200.86-16.6Q200.86-17.29 200.61-17.9 200.35-18.51 199.89-18.97 199.42-19.43 198.81-19.69 198.2-19.95 197.52-19.95L197.52-19.95Q196.84-19.95 196.24-19.69 195.64-19.43 195.19-18.97 194.74-18.51 194.48-17.9 194.22-17.29 194.22-16.6L194.22-16.6 194.22 0 187.56 0 187.56-26.15 189.17-26.15 190.98-24.15Q192.37-25.32 194.04-25.96 195.71-26.61 197.52-26.61L197.52-26.61Q199.35-26.61 201.1-25.93 202.84-25.24 204.16-23.56L204.16-23.56Q204.77-24.39 205.55-24.98 206.33-25.56 207.2-25.93 208.07-26.29 208.99-26.45 209.92-26.61 210.82-26.61L210.82-26.61Q212.9-26.61 214.72-25.83 216.54-25.05 217.89-23.69 219.25-22.34 220.03-20.51 220.81-18.68 220.81-16.6L220.81-16.6ZM235.38 10.01L231.96 9.96 231.96 3.25 235.68 3.3Q236.65 3.3 237.56 2.98 238.46 2.66 239.23 2.1 240 1.54 240.58 0.77 241.17 0 241.54-0.9L241.54-0.9Q240.44-0.44 239.3 0.02 238.17 0.49 237.02 0.49L237.02 0.49Q234.6 0.49 232.48-0.37 230.35-1.22 228.75-2.8 227.16-4.37 226.24-6.63 225.32-8.89 225.32-11.69L225.32-11.69 225.32-26.15 231.96-26.15 231.96-11.69Q231.96-10.3 232.37-9.27 232.77-8.23 233.45-7.53 234.14-6.84 235.05-6.49 235.97-6.15 237.02-6.15L237.02-6.15Q238.04-6.15 238.96-6.63 239.88-7.1 240.56-7.89 241.24-8.67 241.63-9.66 242.02-10.64 242.02-11.69L242.02-11.69 242.02-26.15 248.74-26.15 248.74-3.3Q248.71-0.54 247.66 1.88 246.61 4.3 244.79 6.1 242.98 7.91 240.56 8.96 238.14 10.01 235.38 10.01L235.38 10.01Z" opacity="1" transform="matrix(1,0,0,1,0,0)" fill="#2b2d42" class="wordmark-text-0" data-fill-palette-color="primary" id="text-0"></path></svg></g></svg></g></svg></g></svg></g><g><svg viewBox="0 0 103.02482455017346 102.85994439313205" height="102.85994439313205" width="103.02482455017346"><g><svg xmlns="http://www.w3.org/2000/svg" xmlns:xlink="http://www.w3.org/1999/xlink" version="1.1" x="0" y="0" viewBox="5.023 5.267000000000001 85.60400000000001 85.46700000000001" enable-background="new 0 0 96 96" xml:space="preserve" height="102.85994439313205" width="103.02482455017346" class="icon-icon-0" data-fill-palette-color="accent" id="icon-0"><path d="M81.525 36.618L48.002 16.093 14.479 36.618h7.957v30.998h-3.023v3.653H14.75v5.152h12.21v3.355h42.08v-3.355h12.21V71.27h-4.659v-3.653h-3.023V36.618H81.525zM26.96 74.922H16.25V72.77h3.162 7.548V74.922zM26.96 71.27h-6.048v-2.153h1.523 4.524V71.27zM26.96 67.616h-3.024V36.618h5.807v16.248H26.96V67.616zM67.54 67.616v1.5 2.153 1.5 2.152 1.5 1.855H28.46v-1.855-1.5V72.77v-1.5-2.153-1.5-13.25h1.282 0.601l0.002 13.25v1.5 2.153 1.5l0.001 2.152v1.5 1.171l0.697-1.171 0.697-1.172c0.014-0.023 0.089-0.146 0.242-0.328 0.436-0.521 1.513-1.531 3.601-2.152 1.05-0.313 2.348-0.528 3.962-0.528s2.913 0.216 3.963 0.528c2.09 0.622 3.168 1.635 3.602 2.152 0.15 0.18 0.225 0.3 0.237 0.322l0.641 1.11 0.658-1.104c0.014-0.023 0.09-0.146 0.242-0.328 0.437-0.521 1.516-1.531 3.604-2.152 1.05-0.313 2.349-0.528 3.962-0.528 1.614 0 2.912 0.216 3.962 0.528 2.088 0.621 3.167 1.632 3.603 2.152 0.149 0.178 0.225 0.299 0.241 0.326l0.671 1.174 0.729 1.273v-1.273-1.5V72.77v-1.5-2.153-1.5-13.25h0.602 1.28V67.616zM56.453 48.475c5.251 0 7.259 2.25 7.705 2.857v2.284 14 1.5 2.153 1.5 0.229c-0.095-0.075-0.209-0.152-0.315-0.229-0.764-0.548-1.821-1.105-3.243-1.5-1.14-0.316-2.501-0.528-4.146-0.528-1.638 0-2.984 0.215-4.121 0.528-1.43 0.395-2.51 0.95-3.276 1.5-0.114 0.082-0.206 0.161-0.308 0.241V72.77v-1.5-2.153-1.5-14-2.283c0.23-0.313 0.875-1.058 2.158-1.71 0.425-0.216 0.926-0.418 1.5-0.594C53.471 48.703 54.795 48.475 56.453 48.475zM52.406 47.484V36.618H64.76v13.144c-1.137-1.115-3.621-2.787-8.307-2.787C54.851 46.975 53.528 47.182 52.406 47.484zM50.906 47.983c-1.431 0.603-2.362 1.358-2.908 1.927-0.544-0.568-1.473-1.321-2.899-1.925V36.618h5.808V47.983zM47.248 51.333v2.283 14 1.5 2.153 1.5 0.24c-0.101-0.08-0.192-0.158-0.307-0.24-0.766-0.55-1.846-1.105-3.274-1.5-1.137-0.313-2.484-0.528-4.122-0.528-1.646 0-3.006 0.212-4.146 0.528-1.421 0.395-2.479 0.952-3.242 1.5-0.107 0.076-0.221 0.153-0.315 0.229V72.77v-1.5-2.153-1.5-14-2.283c0.452-0.615 2.461-2.858 7.703-2.858 1.662 0 2.988 0.229 4.054 0.557 0.574 0.176 1.075 0.379 1.5 0.596C46.382 50.28 47.022 51.024 47.248 51.333zM43.599 47.485c-1.123-0.303-2.448-0.511-4.054-0.511-4.683 0-7.165 1.67-8.303 2.785V36.618h12.356V47.485zM66.26 52.866V36.618h5.808v30.998H69.04v-14.75H66.26zM79.75 72.77v2.152H69.04V72.77h7.551H79.75zM75.091 69.116v2.153H69.04v-2.153h4.527H75.091zM64.76 35.118H52.406h-8.808H31.242h-8.807-2.635l28.201-17.266 28.201 17.266h-2.636H64.76z" fill="#ee3e38" data-fill-palette-color="accent"></path><path d="M48.002 23.905c-2.428 0-4.403 1.977-4.403 4.405 0 2.427 1.976 4.4 4.403 4.4 2.429 0 4.404-1.974 4.404-4.4C52.406 25.882 50.431 23.905 48.002 23.905zM48.002 31.211c-1.601 0-2.903-1.301-2.903-2.9 0-1.602 1.303-2.905 2.903-2.905 1.602 0 2.904 1.304 2.904 2.905C50.906 29.91 49.604 31.211 48.002 31.211z" fill="#ee3e38" data-fill-palette-color="accent"></path><path d="M39.545 51.681c-2.048 0-3.881 0.327-5.449 0.972l0.396 0.964 0.174 0.423c0.409-0.168 0.848-0.304 1.3-0.423 1.081-0.284 2.274-0.436 3.579-0.436 1.306 0 2.5 0.151 3.581 0.436 0.161 0.042 0.317 0.089 0.473 0.138 0.282 0.088 0.564 0.177 0.828 0.285l0.174-0.423 0.396-0.964c-0.443-0.183-0.914-0.332-1.398-0.464C42.369 51.855 41.015 51.681 39.545 51.681z" fill="#ee3e38" data-fill-palette-color="accent"></path><path d="M39.545 55.147c-2.051 0-3.884 0.327-5.449 0.972l0.57 1.387c1.384-0.569 3.025-0.858 4.879-0.858 1.502 0 2.855 0.199 4.054 0.573 0.282 0.088 0.564 0.177 0.828 0.285l0.57-1.387c-0.443-0.183-0.913-0.333-1.398-0.464C42.37 55.322 41.017 55.147 39.545 55.147z" fill="#ee3e38" data-fill-palette-color="accent"></path><path d="M39.545 58.61c-2.046 0-3.879 0.327-5.449 0.973l0.57 1.387c1.388-0.57 3.029-0.859 4.879-0.859 1.499 0 2.853 0.199 4.054 0.574 0.282 0.088 0.564 0.177 0.828 0.285l0.57-1.387c-0.443-0.183-0.914-0.333-1.398-0.464C42.368 58.785 41.014 58.61 39.545 58.61z" fill="#ee3e38" data-fill-palette-color="accent"></path><path d="M39.545 62.077c-2.048 0-3.881 0.327-5.449 0.972l0.57 1.387c1.387-0.569 3.028-0.858 4.879-0.858 1.5 0 2.854 0.199 4.054 0.573 0.282 0.088 0.564 0.177 0.828 0.285l0.57-1.387c-0.443-0.183-0.914-0.332-1.398-0.464C42.369 62.252 41.015 62.077 39.545 62.077z" fill="#ee3e38" data-fill-palette-color="accent"></path><path d="M39.545 65.544c-2.051 0-3.884 0.327-5.449 0.972l0.452 1.101 0.118 0.286c0.265-0.108 0.547-0.198 0.83-0.286 1.197-0.374 2.55-0.572 4.049-0.572 1.501 0 2.854 0.198 4.052 0.572 0.001 0 0.001 0 0.002 0.001 0.282 0.088 0.564 0.177 0.828 0.285l0.117-0.286 0.453-1.101c-0.443-0.183-0.913-0.333-1.398-0.464C42.37 65.719 41.017 65.544 39.545 65.544z" fill="#ee3e38" data-fill-palette-color="accent"></path><path d="M51.003 52.652l0.396 0.964 0.174 0.423c0.266-0.109 0.549-0.198 0.833-0.287 0.153-0.048 0.309-0.094 0.468-0.136 1.081-0.284 2.275-0.436 3.581-0.436 1.087 0 2.091 0.111 3.024 0.31l-0.035 0.126-0.483 1.724c-0.796-0.12-1.626-0.192-2.506-0.192-1.47 0-2.821 0.175-4.049 0.507-0.487 0.131-0.959 0.282-1.403 0.465l0.57 1.387c0.266-0.109 0.549-0.199 0.833-0.287 1.197-0.373 2.549-0.571 4.049-0.571 0.737 0 1.431 0.059 2.098 0.149l-0.528 1.885c-0.509-0.046-1.03-0.071-1.569-0.071-1.468 0-2.819 0.175-4.049 0.508-0.486 0.132-0.958 0.282-1.403 0.465l0.57 1.387c0.266-0.109 0.549-0.198 0.833-0.287 1.199-0.374 2.552-0.572 4.049-0.572 0.396 0 0.778 0.02 1.155 0.046l-0.546 1.946c-0.204-0.007-0.4-0.025-0.609-0.025-1.468 0-2.82 0.175-4.049 0.507-0.486 0.132-0.958 0.282-1.403 0.465l0.57 1.387c0.266-0.109 0.549-0.198 0.833-0.287 1.199-0.373 2.551-0.571 4.049-0.571 0.066 0 0.128 0.007 0.194 0.008l-0.389 1.385 0.056 0.58c-1.415 0.011-2.723 0.18-3.91 0.501-0.487 0.131-0.959 0.282-1.403 0.465l0.453 1.101 0.117 0.286c0.265-0.108 0.547-0.198 0.83-0.286 0.001 0 0.002-0.001 0.003-0.001 1.197-0.373 2.549-0.571 4.049-0.571 0.002 0 0.003 0 0.005 0l0.056 0.572 0.144 1.5 0.087 0.899 0.672-0.899 1.119-1.5 0.29-0.388c0.59 0.093 1.148 0.223 1.677 0.388 0.283 0.088 0.565 0.178 0.83 0.286l0.118-0.286 0.452-1.101c-0.653-0.27-1.364-0.47-2.107-0.627l0.507-1.808c0.356 0.103 0.701 0.22 1.03 0.354l0.57-1.387c-0.383-0.157-0.782-0.294-1.195-0.414l0.48-1.715c0.047 0.019 0.099 0.031 0.145 0.05l0.57-1.387c-0.1-0.041-0.209-0.069-0.31-0.107l1.642-5.859 0.198-0.706-3.515-0.99-0.035 0.126c-1.063-0.233-2.202-0.365-3.43-0.365-1.468 0-2.82 0.175-4.049 0.507C51.92 52.319 51.448 52.47 51.003 52.652zM60.03 57.082l0.405-1.443 0.488-1.741 0.035-0.126 0.435 0.122 0.191 0.054-0.526 1.879-0.405 1.445-0.495 1.768-0.404 1.443-0.512 1.823-0.408 1.457-0.26 0.93-0.629-0.176 0.234-0.837 0.409-1.458 0.528-1.884 0.405-1.445L60.03 57.082z" fill="#ee3e38" data-fill-palette-color="accent"></path><path d="M27.948 86.25c-1.236 0-2.242 1.006-2.242 2.242s1.006 2.242 2.242 2.242 2.242-1.006 2.242-2.242S29.185 86.25 27.948 86.25zM27.948 90.234c-0.961 0-1.742-0.781-1.742-1.742s0.781-1.742 1.742-1.742 1.742 0.781 1.742 1.742S28.909 90.234 27.948 90.234z" fill="#ee3e38" data-fill-palette-color="accent"></path><path d="M8.231 27.813l-0.99 2.008-2.218 0.321 1.605 1.563L6.25 33.912l1.981-1.042 1.982 1.042-0.378-2.208 1.603-1.563L9.224 29.82 8.231 27.813zM9.299 31.53l0.251 1.468-1.318-0.692-1.317 0.692 0.252-1.468L6.1 30.491l1.474-0.214 0.658-1.336 0.66 1.336 1.473 0.214L9.299 31.53z" fill="#ee3e38" data-fill-palette-color="accent"></path><path d="M28.695 8.205l-0.685-1.386-0.684 1.386-1.529 0.222 1.106 1.079-0.261 1.523 1.367-0.719 1.369 0.718-0.262-1.522 1.107-1.079L28.695 8.205zM28.716 10.116l-0.705-0.37-0.703 0.369 0.134-0.783-0.569-0.556 0.787-0.114 0.352-0.714 0.353 0.714 0.788 0.114-0.57 0.556L28.716 10.116z" fill="#ee3e38" data-fill-palette-color="accent"></path><path d="M84.593 68.066l1.106 1.079-0.261 1.524 1.368-0.72 1.368 0.72-0.261-1.524 1.106-1.079-1.529-0.223-0.685-1.385-0.685 1.385L84.593 68.066zM86.807 67.588l0.353 0.713 0.787 0.115-0.569 0.556 0.134 0.784-0.704-0.37-0.704 0.37 0.134-0.784-0.569-0.556 0.787-0.115L86.807 67.588z" fill="#ee3e38" data-fill-palette-color="accent"></path><path d="M86.807 14.135l-0.902 2.777h-2.919l2.36 1.717-0.901 2.775 2.362-1.716 2.361 1.716-0.901-2.775 2.36-1.717h-2.919L86.807 14.135zM87.679 18.438l0.538 1.658-1.41-1.024-1.411 1.024 0.538-1.658-1.411-1.025h1.745l0.539-1.658 0.538 1.658h1.745L87.679 18.438z" fill="#ee3e38" data-fill-palette-color="accent"></path><path d="M76.608 7.509c0 1.236 1.006 2.242 2.242 2.242s2.242-1.006 2.242-2.242-1.006-2.242-2.242-2.242S76.608 6.272 76.608 7.509zM78.851 5.767c0.961 0 1.742 0.781 1.742 1.742s-0.781 1.742-1.742 1.742-1.742-0.781-1.742-1.742S77.89 5.767 78.851 5.767z" fill="#ee3e38" data-fill-palette-color="accent"></path><path d="M86.557 48.986c0 0.985 0.801 1.786 1.786 1.786s1.786-0.801 1.786-1.786S89.328 47.2 88.343 47.2 86.557 48.001 86.557 48.986zM88.343 47.7c0.709 0 1.286 0.577 1.286 1.286s-0.577 1.286-1.286 1.286-1.286-0.577-1.286-1.286S87.634 47.7 88.343 47.7z" fill="#ee3e38" data-fill-palette-color="accent"></path><path d="M12.317 17.154c0 1.302 1.059 2.361 2.36 2.361s2.36-1.06 2.36-2.361-1.059-2.36-2.36-2.36S12.317 15.853 12.317 17.154zM14.678 15.294c1.025 0 1.86 0.835 1.86 1.86 0 1.026-0.835 1.861-1.86 1.861s-1.86-0.835-1.86-1.861C12.817 16.129 13.652 15.294 14.678 15.294z" fill="#ee3e38" data-fill-palette-color="accent"></path><path d="M21.826 88.029l-0.123 0.484c0.325 0.082 0.654 0.156 0.987 0.224l0.1-0.49C22.465 88.182 22.144 88.109 21.826 88.029z" fill="#ee3e38" data-fill-palette-color="accent"></path><path d="M9.679 78.996l-0.43 0.256c0.338 0.565 0.709 1.122 1.104 1.655l0.402-0.297C10.37 80.09 10.008 79.547 9.679 78.996z" fill="#ee3e38" data-fill-palette-color="accent"></path><path d="M16.463 85.804c-0.556-0.334-1.099-0.697-1.612-1.081l-0.299 0.4c0.527 0.394 1.083 0.767 1.653 1.108L16.463 85.804z" fill="#ee3e38" data-fill-palette-color="accent"></path><path d="M6.583 71.81c0.098 0.656 0.229 1.313 0.389 1.949l0.484-0.121c-0.156-0.621-0.283-1.261-0.379-1.902L6.583 71.81z" fill="#ee3e38" data-fill-palette-color="accent"></path><path d="M18.174 86.72l-0.215 0.451c0.6 0.284 1.218 0.541 1.84 0.764l0.168-0.471C19.361 87.247 18.758 86.996 18.174 86.72z" fill="#ee3e38" data-fill-palette-color="accent"></path><path d="M13.018 83.856l0.336-0.369c-0.478-0.436-0.938-0.898-1.369-1.376l-0.371 0.336C12.056 82.937 12.527 83.41 13.018 83.856z" fill="#ee3e38" data-fill-palette-color="accent"></path><path d="M8.764 77.285c-0.274-0.582-0.524-1.185-0.742-1.792l-0.471 0.168c0.224 0.623 0.479 1.241 0.762 1.837L8.764 77.285z" fill="#ee3e38" data-fill-palette-color="accent"></path><path d="M6.365 68.853c0 0.327 0.008 0.653 0.023 0.979l0.5-0.023c-0.016-0.317-0.023-0.636-0.023-0.955 0-0.328 0.008-0.657 0.024-0.985l-0.5-0.025C6.373 68.18 6.365 68.517 6.365 68.853z" fill="#ee3e38" data-fill-palette-color="accent"></path><path d="M6.59 65.848l0.494 0.074c0.049-0.324 0.104-0.648 0.17-0.972l-0.49-0.1C6.696 65.184 6.639 65.516 6.59 65.848z" fill="#ee3e38" data-fill-palette-color="accent"></path><path d="M89.456 76.01l-0.5-0.008c-0.006 0.329-0.025 0.657-0.054 0.981l0.498 0.045C89.431 76.692 89.45 76.353 89.456 76.01z" fill="#ee3e38" data-fill-palette-color="accent"></path><path d="M84.307 86.604l-0.316-0.387c-0.551 0.451-1.144 0.863-1.761 1.225l0.252 0.432C83.122 87.498 83.736 87.071 84.307 86.604z" fill="#ee3e38" data-fill-palette-color="accent"></path><path d="M80.297 88.372c-0.665 0.259-1.356 0.465-2.054 0.614l0.104 0.488c0.724-0.153 1.441-0.368 2.132-0.636L80.297 88.372z" fill="#ee3e38" data-fill-palette-color="accent"></path><path d="M85.91 85.063c0.493-0.554 0.945-1.15 1.343-1.772l-0.422-0.27c-0.383 0.601-0.818 1.176-1.294 1.71L85.91 85.063z" fill="#ee3e38" data-fill-palette-color="accent"></path><path d="M87.84 81.128l0.459 0.199c0.296-0.681 0.538-1.389 0.722-2.104l-0.484-0.125C88.359 79.789 88.125 80.472 87.84 81.128z" fill="#ee3e38" data-fill-palette-color="accent"></path><path d="M76.111 89.265c-0.324 0.017-0.65 0.023-0.983 0.016l-0.01 0.5c0.094 0.002 0.188 0.003 0.281 0.003 0.247 0 0.492-0.007 0.737-0.019L76.111 89.265z" fill="#ee3e38" data-fill-palette-color="accent"></path><rect x="88.093" y="32.377" width="0.5" height="2" fill="#ee3e38" data-fill-palette-color="accent"></rect><rect x="88.093" y="28.377" width="0.5" height="2" fill="#ee3e38" data-fill-palette-color="accent"></rect><rect x="88.093" y="36.377" width="0.5" height="2" fill="#ee3e38" data-fill-palette-color="accent"></rect><rect x="88.093" y="40.377" width="0.5" height="2" fill="#ee3e38" data-fill-palette-color="accent"></rect></svg></g></svg></g></svg></g><defs></defs></svg><rect width="395.52" height="78.82568926840229" fill="none" stroke="none" visibility="hidden"></rect></g></svg></g></svg>